<svg xmlns="http://www.w3.org/2000/svg" viewBox="0 0 2520 500" width="100%" height="auto">
<style><![CDATA[
:root {
  --bg: #ffffff;
  --primary: #0a0a0a;
  --accent: #0a0a0a;
  --success: #0a0a0a;
  --error: #0a0a0a;
  --muted: #737373;
}
@media (prefers-color-scheme: dark) {
  :root {
    --bg: #0a0a0a;
    --primary: #fafafa;
    --accent: #fafafa;
    --success: #fafafa;
    --error: #fafafa;
    --muted: #a3a3a3;
  }
}
.canvas { fill: var(--bg); }
.boundary { fill: none; stroke: var(--muted); stroke-width: 1; }
.service { fill: var(--bg); stroke: var(--primary); stroke-width: 2; }
.process { fill: var(--bg); stroke: var(--primary); stroke-width: 2; }
.state { fill: var(--bg); stroke: var(--primary); stroke-width: 2; }
.accent-stroke { stroke: var(--primary); stroke-width: 3.5; }
.connection-sync { stroke: var(--primary); stroke-width: 2; fill: none; }
.connection-async { stroke: var(--primary); stroke-width: 2; fill: none; stroke-dasharray: 6 4; }
.connection-error { stroke: var(--primary); stroke-width: 2; fill: none; stroke-dasharray: 2 2; }
text { font-family: "Inter", ui-sans-serif, system-ui, sans-serif; fill: var(--primary); font-size: 14px; }
text.muted { fill: var(--muted); font-style: italic; font-size: 12px; }
text.code { font-family: "JetBrains Mono", "Geist Mono", ui-monospace, monospace; font-size: 11px; }
text.label-tag { font-family: "JetBrains Mono", "Geist Mono", ui-monospace, monospace; font-size: 10px; fill: var(--muted); }
]]></style>
<defs>
<marker id="arrow-filled" viewBox="0 0 10 10" refX="9" refY="5" markerWidth="8" markerHeight="8" orient="auto-start-reverse">
<path d="M0,0 L10,5 L0,10 z" class="arrow-fill"/>
</marker>
<marker id="arrow-open" viewBox="0 0 10 10" refX="9" refY="5" markerWidth="8" markerHeight="8" orient="auto-start-reverse">
<path d="M0,0 L10,5 L0,10" fill="none" stroke-width="1.5" class="arrow-stroke"/>
</marker>
</defs>
<style><![CDATA[
.arrow-fill { fill: var(--primary); }
.arrow-stroke { stroke: var(--primary); }
]]></style>
<rect class="canvas" width="100%" height="100%"/>
<g class="layer-boundaries">
<rect class="boundary" x="60" y="60" width="260" height="280" rx="8" data-name="user"/>
<rect class="boundary" x="420" y="60" width="260" height="160" rx="8" data-name="cli"/>
<rect class="boundary" x="780" y="60" width="260" height="380" rx="8" data-name="plugin"/>
<rect class="boundary" x="1120" y="60" width="260" height="280" rx="8" data-name="dev"/>
<rect class="boundary" x="1480" y="60" width="260" height="280" rx="8" data-name="codex_user"/>
<rect class="boundary" x="1840" y="60" width="260" height="280" rx="8" data-name="codex_repo"/>
<rect class="boundary" x="2200" y="60" width="260" height="380" rx="8" data-name="verify"/>
</g>
<g class="layer-labels">
<text class="muted" x="80" y="88">User</text>
<text class="muted" x="440" y="88">CLI</text>
<text class="muted" x="800" y="88">Claude plugin</text>
<text class="muted" x="1140" y="88">Claude dev</text>
<text class="muted" x="1500" y="88">Codex user</text>
<text class="muted" x="1860" y="88">Codex repo</text>
<text class="muted" x="2220" y="88">Verification</text>
</g>
<g class="layer-services">
<rect class="state accent-stroke" x="100" y="100" width="180" height="80" rx="40" data-name="start"/>
<rect class="process" x="100" y="220" width="180" height="80" rx="8" data-name="choose_runtime"/>
<rect class="process" x="460" y="100" width="180" height="80" rx="8" data-name="install_cli"/>
<rect class="process" x="820" y="100" width="180" height="80" rx="8" data-name="plugin_add"/>
<rect class="process" x="820" y="220" width="180" height="80" rx="8" data-name="plugin_install"/>
<rect class="process" x="820" y="320" width="180" height="80" rx="8" data-name="plugin_update"/>
<rect class="process" x="1160" y="100" width="180" height="80" rx="8" data-name="dev_dry_run"/>
<rect class="process" x="1160" y="220" width="180" height="80" rx="8" data-name="dev_install"/>
<rect class="process" x="1520" y="100" width="180" height="80" rx="8" data-name="codex_user_dry_run"/>
<rect class="process" x="1520" y="220" width="180" height="80" rx="8" data-name="codex_user_install"/>
<rect class="process" x="1880" y="100" width="180" height="80" rx="8" data-name="codex_repo_dry_run"/>
<rect class="process" x="1880" y="220" width="180" height="80" rx="8" data-name="codex_repo_install"/>
<rect class="process" x="2240" y="100" width="180" height="80" rx="8" data-name="verify_list"/>
<rect class="process" x="2240" y="220" width="180" height="80" rx="8" data-name="validate_script"/>
<rect class="state" x="2240" y="320" width="180" height="80" rx="40" data-name="ready"/>
</g>
<g class="layer-connections">
<path class="connection-sync" d="M 190 180 L 190 220" marker-end="url(#arrow-filled)"/>
<path class="connection-sync" d="M 280 260 L 370 260 L 370 140 L 460 140" marker-end="url(#arrow-filled)"/>
<path class="connection-sync" d="M 640 140 L 730 140 L 730 140 L 820 140" marker-end="url(#arrow-filled)"/>
<path class="connection-sync" d="M 640 140 L 900 140 L 900 140 L 1160 140" marker-end="url(#arrow-filled)"/>
<path class="connection-sync" d="M 640 140 L 1080 140 L 1080 140 L 1520 140" marker-end="url(#arrow-filled)"/>
<path class="connection-sync" d="M 640 140 L 1260 140 L 1260 140 L 1880 140" marker-end="url(#arrow-filled)"/>
<path class="connection-sync" d="M 910 180 L 910 220" marker-end="url(#arrow-filled)"/>
<path class="connection-async" d="M 910 300 L 910 320" marker-end="url(#arrow-open)"/>
<path class="connection-sync" d="M 1000 360 L 1620 360 L 1620 140 L 2240 140" marker-end="url(#arrow-filled)"/>
<path class="connection-sync" d="M 1250 180 L 1250 220" marker-end="url(#arrow-filled)"/>
<path class="connection-sync" d="M 1340 260 L 1790 260 L 1790 140 L 2240 140" marker-end="url(#arrow-filled)"/>
<path class="connection-sync" d="M 1610 180 L 1610 220" marker-end="url(#arrow-filled)"/>
<path class="connection-sync" d="M 1700 260 L 1970 260 L 1970 140 L 2240 140" marker-end="url(#arrow-filled)"/>
<path class="connection-sync" d="M 1970 180 L 1970 220" marker-end="url(#arrow-filled)"/>
<path class="connection-sync" d="M 2060 260 L 2150 260 L 2150 140 L 2240 140" marker-end="url(#arrow-filled)"/>
<path class="connection-sync" d="M 2330 180 L 2330 220" marker-end="url(#arrow-filled)"/>
<path class="connection-sync" d="M 2330 300 L 2330 320" marker-end="url(#arrow-filled)"/>
</g>
<g class="layer-labels">
<text x="190" y="140" text-anchor="middle" dominant-baseline="middle">Start</text>
<text x="190" y="260" text-anchor="middle" dominant-baseline="middle">Choose target</text>
<tspan x="190" dy="1.4em" text-anchor="middle">runtime</tspan>
<text x="550" y="140" text-anchor="middle" dominant-baseline="middle">Install vd CLI</text>
<text x="910" y="140" text-anchor="middle" dominant-baseline="middle">Plugin</text>
<tspan x="910" dy="1.4em" text-anchor="middle">marketplace add</tspan>
<text x="910" y="260" text-anchor="middle" dominant-baseline="middle">Plugin</text>
<tspan x="910" dy="1.4em" text-anchor="middle">install</tspan>
<text x="910" y="360" text-anchor="middle" dominant-baseline="middle">Plugin</text>
<tspan x="910" dy="1.4em" text-anchor="middle">update</tspan>
<text x="1250" y="140" text-anchor="middle" dominant-baseline="middle">Dev</text>
<tspan x="1250" dy="1.4em" text-anchor="middle">dry-run</tspan>
<text x="1250" y="260" text-anchor="middle" dominant-baseline="middle">Dev</text>
<tspan x="1250" dy="1.4em" text-anchor="middle">install</tspan>
<text x="1610" y="140" text-anchor="middle" dominant-baseline="middle">Codex user</text>
<tspan x="1610" dy="1.4em" text-anchor="middle">dry-run</tspan>
<text x="1610" y="260" text-anchor="middle" dominant-baseline="middle">Codex user</text>
<tspan x="1610" dy="1.4em" text-anchor="middle">install</tspan>
<text x="1970" y="140" text-anchor="middle" dominant-baseline="middle">Codex repo</text>
<tspan x="1970" dy="1.4em" text-anchor="middle">dry-run</tspan>
<text x="1970" y="260" text-anchor="middle" dominant-baseline="middle">Codex repo</text>
<tspan x="1970" dy="1.4em" text-anchor="middle">install</tspan>
<text x="2330" y="140" text-anchor="middle" dominant-baseline="middle">Verify</text>
<tspan x="2330" dy="1.4em" text-anchor="middle">install</tspan>
<text x="2330" y="260" text-anchor="middle" dominant-baseline="middle">Validate</text>
<tspan x="2330" dy="1.4em" text-anchor="middle">scripts</tspan>
<text x="2330" y="360" text-anchor="middle" dominant-baseline="middle">Ready to</text>
<tspan x="2330" dy="1.4em" text-anchor="middle">invoke</tspan>
<g class="arrow-label">
<rect x="340" y="248" width="84" height="18" style="fill: var(--bg)"/>
<text x="382" y="262" text-anchor="middle" class="code">CLI-managed</text>
</g>
<g class="arrow-label">
<rect x="650" y="128" width="70" height="18" style="fill: var(--bg)"/>
<text x="685" y="142" text-anchor="middle" class="code">plugin mode</text>
</g>
<g class="arrow-label">
<rect x="720" y="128" width="100" height="18" style="fill: var(--bg)"/>
<text x="770" y="142" text-anchor="middle" class="code">dev symlinks</text>
</g>
<g class="arrow-label">
<rect x="800" y="128" width="120" height="18" style="fill: var(--bg)"/>
<text x="860" y="142" text-anchor="middle" class="code">codex user</text>
</g>
<g class="arrow-label">
<rect x="890" y="128" width="120" height="18" style="fill: var(--bg)"/>
<text x="950" y="142" text-anchor="middle" class="code">codex repo</text>
</g>
<g class="arrow-label">
<rect x="910" y="308" width="24" height="18" style="fill: var(--bg)"/>
<text x="922" y="322" text-anchor="middle" class="code">update</text>
</g>
<text x="550" y="185" text-anchor="middle" class="code" font-size="10">brew install or</text>
<text x="550" y="198" text-anchor="middle" class="code" font-size="10">go install</text>
<text x="910" y="185" text-anchor="middle" class="code" font-size="10">/plugin marketplace</text>
<text x="910" y="198" text-anchor="middle" class="code" font-size="10">add vanducng/skills</text>
<text x="910" y="305" text-anchor="middle" class="code" font-size="10">/plugin install</text>
<text x="910" y="318" text-anchor="middle" class="code" font-size="10">vd@vd-skills</text>
<text x="910" y="405" text-anchor="middle" class="code" font-size="10">/plugin marketplace</text>
<text x="910" y="418" text-anchor="middle" class="code" font-size="10">update vd-skills</text>
<text x="1250" y="185" text-anchor="middle" class="code" font-size="10">vd install claude</text>
<text x="1250" y="198" text-anchor="middle" class="code" font-size="10">--dev --dry-run</text>
<text x="1250" y="305" text-anchor="middle" class="code" font-size="10">vd install claude</text>
<text x="1250" y="318" text-anchor="middle" class="code" font-size="10">--dev</text>
<text x="1610" y="185" text-anchor="middle" class="code" font-size="10">vd install codex</text>
<text x="1610" y="198" text-anchor="middle" class="code" font-size="10">--dry-run</text>
<text x="1610" y="305" text-anchor="middle" class="code" font-size="10">vd install codex</text>
<text x="1970" y="185" text-anchor="middle" class="code" font-size="10">vd install codex</text>
<text x="1970" y="198" text-anchor="middle" class="code" font-size="10">--scope repo --dry-run</text>
<text x="1970" y="305" text-anchor="middle" class="code" font-size="10">vd install codex</text>
<text x="1970" y="318" text-anchor="middle" class="code" font-size="10">--scope repo</text>
<text x="2330" y="185" text-anchor="middle" class="code" font-size="10">vd list, vd doctor</text>
<text x="2330" y="305" text-anchor="middle" class="code" font-size="10">bash scripts/</text>
<text x="2330" y="318" text-anchor="middle" class="code" font-size="10">validate.sh</text>
<text x="190" y="178" text-anchor="middle" class="label-tag">[Subject]</text>
</g>
</svg>